<svg width="85" height="99" viewBox="0 0 85 99" fill="none" xmlns="http://www.w3.org/2000/svg">
<g clip-path="url(#clip0_735_21217)">
<path d="M60.8004 94.9374C60.8004 96.4185 59.2466 97.3857 57.9176 96.732L43.1856 89.4854C42.6275 89.2109 41.9736 89.2117 41.4162 89.4873L26.787 96.7224C25.4577 97.3798 23.9004 96.4126 23.9004 94.9297V53.406C23.9004 52.6908 24.2823 52.03 24.902 51.673L41.3047 42.2236C41.9213 41.8684 42.68 41.8676 43.2974 42.2213L59.7947 51.6738C60.4167 52.0302 60.8004 52.6922 60.8004 53.4091V94.9374Z" fill="#5EB4E7"/>
<path d="M42.3 82.75C40.4 82.75 39.1 81.35 38 80.15C37.6 79.75 36.8 78.9501 36.5 78.8501C36.2 78.8501 35.3 79.35 34.7 79.65C33.5 80.25 32.3 80.9501 31 80.9501C30.6 80.9501 30.2 80.85 29.9 80.75C28.1 80.15 27.3 78.4501 26.6 76.9501C26.3 76.3501 25.9 75.45 25.6 75.25C25.6 75.25 25.5 75.25 25.3 75.25C24.8 75.25 24.2 75.3501 23.6 75.4501C22.8 75.55 22 75.75 21.2 75.75C20.2 75.75 19.3 75.55 18.6 74.9501C17.1 73.8501 16.8 71.9501 16.6 70.3501C16.5 69.7501 16.4 68.6501 16.2 68.3501C16 68.1501 14.9 68.05 14.3 67.9501C12.7 67.7501 10.8 67.4501 9.7 65.9501C8.6 64.4501 8.9 62.6501 9.2 60.9501C9.3 60.3501 9.5 59.25 9.4 58.9501C9.2 58.75 8.3 58.25 7.7 57.9501C6.3 57.25 4.5 56.45 3.9 54.65C3.3 52.95 4.2 51.25 5 49.85C5.3 49.25 5.8 48.3501 5.8 47.9501C5.7 47.6501 5 46.9501 4.5 46.55C3.4 45.65 2 44.25 2 42.35C2 40.45 3.4 39.15 4.6 38.05C5.1 37.65 5.8 36.85 5.9 36.55C5.9 36.25 5.4 35.35 5.1 34.75C4.3 33.25 3.4 31.65 4 29.95C4.6 28.15 6.3 27.35 7.8 26.65C8.4 26.35 9.3 25.95 9.5 25.65C9.6 25.35 9.4 24.35 9.3 23.65C9 22.05 8.7 20.15 9.8 18.65C10.9 17.15 12.8 16.85 14.4 16.65C15 16.55 16.1 16.45 16.4 16.25C16.6 16.05 16.7 14.95 16.8 14.35C17 12.75 17.3 10.85 18.8 9.75005C19.3 9.25005 20.2 9.05005 21.2 9.05005C22 9.05005 22.8 9.15005 23.6 9.35005C24.2 9.45005 24.8 9.55005 25.3 9.55005C25.5 9.55005 25.6 9.55005 25.6 9.55005C25.8 9.35005 26.3 8.45005 26.6 7.85005C27.3 6.45005 28.1 4.65005 29.9 4.05005C30.3 3.95005 30.6 3.85005 31 3.85005C32.3 3.85005 33.5 4.45005 34.7 5.15005C35.3 5.45005 36.2 5.95005 36.6 5.95005C36.9 5.85005 37.6 5.15005 38 4.65005C39.1 3.45005 40.5 2.05005 42.3 2.05005C44.2 2.05005 45.5 3.45005 46.6 4.65005C47 5.15005 47.8 5.85005 48.1 5.95005C48.4 5.95005 49.3 5.45005 49.9 5.15005C51.1 4.55005 52.3 3.85005 53.6 3.85005C54 3.85005 54.4 3.95005 54.7 4.05005C56.5 4.65005 57.3 6.35005 58 7.85005C58.3 8.45005 58.7 9.35005 59 9.55005C59 9.55005 59.1 9.55005 59.3 9.55005C59.8 9.55005 60.4 9.45005 61 9.35005C61.8 9.15005 62.7 9.05005 63.5 9.05005C64.5 9.05005 65.4 9.25005 66.1 9.85005C67.6 10.95 67.9 12.85 68.1 14.45C68.2 15.05 68.3 16.15 68.5 16.45C68.7 16.65 69.8 16.75 70.4 16.85C72 17.05 73.9 17.35 75 18.85C76.1 20.35 75.8 22.15 75.5 23.85C75.4 24.45 75.2 25.55 75.3 25.85C75.5 26.05 76.4 26.55 77 26.85C78.4 27.55 80.2 28.35 80.8 30.15C81.4 31.85 80.5 33.5501 79.7 34.9501C79.4 35.55 78.9 36.45 78.9 36.85C79 37.15 79.7 37.85 80.2 38.25C81.3 39.35 82.8 40.75 82.8 42.55C82.8 44.4501 81.4 45.75 80.2 46.85C79.7 47.25 79 48.05 78.9 48.35C78.9 48.65 79.4 49.55 79.7 50.15C80.5 51.65 81.4 53.25 80.8 54.9501C80.2 56.75 78.5 57.55 77 58.25C76.4 58.55 75.5 58.9501 75.3 59.25C75.2 59.55 75.4 60.55 75.5 61.25C75.8 62.85 76.1 64.75 75 66.25C73.9 67.75 72 68.05 70.4 68.25C69.8 68.35 68.7 68.4501 68.4 68.65C68.2 68.85 68.1 69.9501 68 70.55C67.8 72.15 67.5 74.05 66 75.15C65.3 75.65 64.5 75.9501 63.4 75.9501C62.6 75.9501 61.8 75.85 61 75.65C60.4 75.55 59.8 75.4501 59.3 75.4501C59.1 75.4501 59 75.4501 59 75.4501C58.8 75.65 58.3 76.55 58 77.15C57.3 78.55 56.5 80.3501 54.7 80.9501C54.3 81.05 54 81.15 53.6 81.15C52.3 81.15 51.1 80.55 49.9 79.8501C49.3 79.55 48.4 79.05 48 79.05C47.7 79.15 47 79.8501 46.6 80.3501C45.6 81.2501 44.2 82.75 42.3 82.75Z" fill="#F8C44F"/>
<path d="M42.3 4.05005C44.2 4.05005 45.9 7.55005 47.8 7.85005C47.9 7.85005 48 7.85005 48.1 7.85005C49.8 7.85005 52 5.75005 53.7 5.75005C53.9 5.75005 54.1 5.75005 54.2 5.85005C56 6.45005 56.5 10.35 58.2 11.15C58.5 11.35 59 11.35 59.4 11.35C60.7 11.35 62.2 10.85 63.5 10.85C64 10.85 64.5 10.95 64.9 11.25C66.5 12.35 65.7 16.25 67.1 17.55C68.5 18.95 72.3 18.15 73.4 19.75C74.5 21.25 72.6 24.75 73.5 26.45C74.4 28.15 78.2 28.65 78.8 30.45C79.4 32.25 76.5 34.95 76.8 36.85C77.1 38.75 80.6 40.35 80.6 42.35C80.6 44.35 77.1 45.95 76.8 47.85C76.5 49.75 79.4 52.4501 78.8 54.25C78.2 56.05 74.3 56.55 73.5 58.25C72.6 59.9501 74.5 63.3501 73.4 64.9501C72.3 66.55 68.4 65.75 67.1 67.15C65.7 68.55 66.5 72.3501 64.9 73.4501C64.5 73.7501 64 73.8501 63.5 73.8501C62.3 73.8501 60.7 73.3501 59.4 73.3501C58.9 73.3501 58.5 73.4501 58.2 73.55C56.5 74.4501 56 78.2501 54.2 78.8501C54 78.9501 53.9 78.9501 53.7 78.9501C52 78.9501 49.8 76.8501 48.1 76.8501C48 76.8501 47.9 76.8501 47.8 76.8501C45.9 77.1501 44.3 80.65 42.3 80.65C40.3 80.65 38.7 77.1501 36.8 76.8501C36.7 76.8501 36.6 76.8501 36.5 76.8501C34.8 76.8501 32.6 78.9501 30.9 78.9501C30.7 78.9501 30.5 78.9501 30.4 78.8501C28.6 78.2501 28.1 74.3501 26.4 73.55C26.1 73.3501 25.6 73.3501 25.2 73.3501C23.9 73.3501 22.4 73.8501 21.1 73.8501C20.6 73.8501 20.1 73.7501 19.7 73.4501C18.1 72.3501 18.9 68.4501 17.5 67.15C16.1 65.75 12.3 66.55 11.2 64.9501C10.1 63.4501 12 59.9501 11.1 58.25C10.2 56.55 6.3 56.05 5.8 54.25C5.2 52.4501 8.1 49.75 7.8 47.85C7.5 45.95 4 44.35 4 42.35C4 40.45 7.5 38.75 7.8 36.85C8.1 34.95 5.2 32.25 5.8 30.45C6.4 28.65 10.3 28.15 11.1 26.45C12 24.75 10.1 21.35 11.2 19.75C12.3 18.15 16.2 18.95 17.5 17.55C18.9 16.15 18.1 12.35 19.7 11.25C20.1 10.95 20.6 10.85 21.1 10.85C22.4 10.85 23.9 11.35 25.2 11.35C25.7 11.35 26.1 11.25 26.4 11.15C28.1 10.25 28.6 6.45005 30.4 5.85005C30.6 5.75005 30.7 5.75005 30.9 5.75005C32.6 5.75005 34.8 7.85005 36.5 7.85005C36.6 7.85005 36.7 7.85005 36.8 7.85005C38.7 7.55005 40.4 4.05005 42.3 4.05005ZM42.3 0.0500488C39.6 0.0500488 37.7 1.95005 36.5 3.25005C36.4 3.35005 36.3 3.55005 36.1 3.65005C35.9 3.55005 35.7 3.45005 35.6 3.35005C34.3 2.65005 32.8 1.85005 31 1.85005C30.4 1.85005 29.8 1.95005 29.2 2.15005C26.6 2.95005 25.5 5.35005 24.7 6.95005C24.6 7.05005 24.5 7.25005 24.5 7.45005C24.3 7.45005 24.1 7.35005 23.9 7.35005C23.1 7.15005 22.2 7.05005 21.2 7.05005C19.7 7.05005 18.5 7.45005 17.4 8.15005C15.2 9.75005 14.9 12.35 14.6 14.05C14.6 14.25 14.5 14.45 14.5 14.65C14.3 14.65 14.1 14.75 13.9 14.75C12.2 14.95 9.6 15.35 8 17.55C6.4 19.75 6.9 22.35 7.2 24.05C7.2 24.25 7.3 24.45 7.3 24.65C7.1 24.75 7 24.85 6.8 24.85C5.2 25.65 2.8 26.75 2 29.35C1.2 31.95 2.4 34.1501 3.2 35.75C3.3 35.9501 3.4 36.05 3.5 36.25C3.4 36.35 3.2 36.55 3.1 36.65C1.9 37.85 0 39.65 0 42.35C0 45.05 1.9 46.95 3.2 48.15C3.3 48.25 3.5 48.35 3.6 48.55C3.5 48.75 3.4 48.9501 3.3 49.05C2.4 50.65 1.2 52.8501 2.1 55.4501C2.9 58.05 5.3 59.1501 6.9 59.9501C7 60.05 7.2 60.1501 7.4 60.25C7.4 60.4501 7.3 60.65 7.3 60.85C7 62.45 6.5 65.05 8.1 67.25C9.7 69.45 12.3 69.75 14 70.05C14.2 70.05 14.4 70.15 14.6 70.15C14.6 70.35 14.7 70.55 14.7 70.75C14.9 72.45 15.3 75.05 17.5 76.65C18.5 77.4501 19.8 77.75 21.3 77.75C22.3 77.75 23.2 77.55 24 77.4501C24.2 77.4501 24.4 77.3501 24.6 77.3501C24.7 77.55 24.8 77.6501 24.8 77.8501C25.6 79.4501 26.7 81.85 29.3 82.65C29.9 82.85 30.5 82.9501 31.1 82.9501C32.9 82.9501 34.5 82.15 35.7 81.4501C35.9 81.3501 36 81.25 36.2 81.15C36.3 81.25 36.5 81.4501 36.6 81.55C37.8 82.8501 39.7 84.75 42.4 84.75C45.1 84.75 47 82.8501 48.2 81.55C48.3 81.4501 48.4 81.25 48.6 81.15C48.8 81.25 49 81.3501 49.1 81.4501C50.4 82.15 51.9 82.9501 53.7 82.9501C54.3 82.9501 54.9 82.85 55.5 82.65C58.1 81.85 59.2 79.4501 60 77.8501C60.1 77.7501 60.2 77.55 60.2 77.3501C60.4 77.3501 60.6 77.4501 60.8 77.4501C61.6 77.55 62.6 77.75 63.5 77.75C65 77.75 66.2 77.35 67.3 76.65C69.5 75.05 69.8 72.45 70.1 70.75C70.1 70.55 70.2 70.35 70.2 70.15C70.4 70.15 70.6 70.05 70.8 70.05C72.5 69.8501 75.1 69.45 76.7 67.25C78.3 65.05 77.8 62.4501 77.5 60.75C77.5 60.55 77.4 60.35 77.4 60.15C77.6 60.05 77.7 59.9501 77.9 59.9501C79.5 59.1501 81.9 58.05 82.7 55.4501C83.5 52.8501 82.3 50.65 81.5 49.05C81.4 48.85 81.3 48.75 81.2 48.55C81.3 48.4501 81.5 48.25 81.6 48.15C82.9 46.95 84.8 45.05 84.8 42.35C84.8 39.65 82.9 37.75 81.6 36.55C81.5 36.4501 81.3 36.35 81.2 36.15C81.3 35.95 81.4 35.75 81.5 35.65C82.4 34.05 83.6 31.85 82.7 29.25C81.9 26.65 79.5 25.55 77.9 24.75C77.8 24.65 77.6 24.55 77.4 24.55C77.4 24.35 77.5 24.15 77.5 23.95C77.8 22.25 78.3 19.65 76.7 17.45C75.1 15.25 72.5 14.95 70.8 14.65C70.6 14.65 70.4 14.55 70.2 14.55C70.2 14.35 70.1 14.15 70.1 13.95C69.9 12.25 69.5 9.65005 67.3 8.05005C66.3 7.25005 65 6.95005 63.5 6.95005C62.5 6.95005 61.6 7.15005 60.8 7.25005C60.6 7.25005 60.4 7.35005 60.2 7.35005C60.1 7.25005 60 7.05005 59.9 6.95005C59.1 5.35005 58 2.95005 55.4 2.15005C54.8 1.95005 54.2 1.85005 53.6 1.85005C51.8 1.85005 50.2 2.65005 49 3.35005C48.8 3.45005 48.7 3.55005 48.5 3.65005C48.4 3.55005 48.2 3.35005 48.1 3.25005C46.9 1.95005 45.1 0.0500488 42.3 0.0500488Z" fill="#282D33"/>
<path d="M68.7998 42.3501C68.7998 57.0501 56.9998 68.8501 42.2998 68.8501C27.6998 68.8501 15.7998 56.9501 15.7998 42.3501C15.7998 27.7501 27.6998 15.8501 42.2998 15.8501C56.9998 15.8501 68.7998 27.7501 68.7998 42.3501Z" fill="white"/>
<path d="M42.2998 70.8501C26.5998 70.8501 13.7998 58.0501 13.7998 42.3501C13.7998 26.6501 26.5998 13.8501 42.2998 13.8501C57.9998 13.8501 70.7998 26.6501 70.7998 42.3501C70.7998 58.0501 57.9998 70.8501 42.2998 70.8501ZM42.2998 17.8501C28.7998 17.8501 17.7998 28.8501 17.7998 42.3501C17.7998 55.8501 28.7998 66.8501 42.2998 66.8501C55.7998 66.8501 66.7998 55.8501 66.7998 42.3501C66.7998 28.8501 55.7998 17.8501 42.2998 17.8501Z" fill="#282D33"/>
<path d="M41.4136 30.443C41.7787 29.7043 42.8305 29.6994 43.2025 30.4348L46.468 36.8916C46.6135 37.1793 46.8888 37.3793 47.2075 37.4285L54.416 38.5432C55.2317 38.6694 55.552 39.6736 54.9599 40.2488L49.7748 45.2858C49.5399 45.514 49.4316 45.8427 49.4849 46.1658L50.6717 53.3609C50.8063 54.1769 49.9487 54.7943 49.2176 54.4077L42.7672 50.9972C42.4748 50.8425 42.1248 50.8425 41.8324 50.9972L35.4046 54.3957C34.6695 54.7844 33.8087 54.1582 33.9522 53.3391L35.2085 46.1712C35.2656 45.8452 35.1577 45.512 34.9203 45.2813L29.7397 40.2488C29.1476 39.6736 29.4679 38.6694 30.2837 38.5432L37.4864 37.4294C37.8082 37.3796 38.0857 37.1762 38.23 36.8843L41.4136 30.443Z" fill="#F8C44F"/>
<path d="M53.3516 56.939C53.4936 57.7583 52.6317 58.3828 51.8973 57.9929L42.869 53.1991C42.5757 53.0433 42.2243 53.0433 41.931 53.1991L32.9057 57.9913C32.1708 58.3815 31.3085 57.7558 31.4517 56.936L33.2082 46.8756C33.2656 46.5472 33.1554 46.2117 32.9145 45.9812L25.4876 38.8737C24.8846 38.2966 25.2122 37.2782 26.0387 37.1611L36.1717 35.7249C36.5019 35.6781 36.787 35.4699 36.932 35.1696L41.4113 25.891C41.773 25.1416 42.8383 25.1361 43.2078 25.8816L47.766 35.078C47.9125 35.3734 48.1952 35.5777 48.5217 35.624L58.6753 37.0631C59.4992 37.1799 59.8283 38.1933 59.2302 38.7719L51.8804 45.8821C51.6424 46.1123 51.5338 46.4453 51.5903 46.7715L53.3516 56.939ZM34.5941 39.9568C33.776 40.0771 33.4491 41.0819 34.0398 41.6605L37.1222 44.68C37.3586 44.9115 37.4651 45.2449 37.4068 45.5706L36.6633 49.7217C36.5161 50.5436 37.3815 51.1733 38.1182 50.7803L41.8294 48.801C42.1235 48.6442 42.4765 48.6442 42.7706 48.801L46.5148 50.798C47.2457 51.1877 48.1064 50.5709 47.9722 49.7536L47.2842 45.5628C47.2314 45.2414 47.3385 44.9144 47.5712 44.6864L50.664 41.6567C51.254 41.0788 50.9287 40.0752 50.1119 39.9533L45.9184 39.3274C45.5938 39.279 45.3135 39.0743 45.1687 38.7797L43.2974 34.9747C42.931 34.2298 41.869 34.2298 41.5027 34.9747L39.6319 38.7785C39.4867 39.0737 39.2056 39.2786 38.8801 39.3265L34.5941 39.9568Z" fill="#282D33"/>
</g>
<defs>
<clipPath id="clip0_735_21217">
<rect width="84.7" height="98.1" fill="white" transform="translate(0 0.0500488)"/>
</clipPath>
</defs>
</svg>
