<svg width="102" height="70" viewBox="0 0 102 70" fill="none" xmlns="http://www.w3.org/2000/svg">
<g clip-path="url(#clip0_735_21457)">
<path d="M73.8002 2.94995H6.2002V48.15H73.8002V2.94995Z" fill="white"/>
<path d="M75.8002 46.1499C75.8002 48.3591 74.0093 50.15 71.8002 50.15H8.20019C5.99105 50.15 4.2002 48.3591 4.2002 46.15V4.94996C4.2002 2.74082 5.99106 0.949951 8.2002 0.949951H71.8002C74.0093 0.949951 75.8002 2.74081 75.8002 4.94995V46.1499ZM8.2002 42.1499C8.2002 44.3591 9.99106 46.15 12.2002 46.15H67.8002C70.0093 46.15 71.8002 44.3591 71.8002 42.15V8.94996C71.8002 6.74082 70.0093 4.94995 67.8002 4.94995H12.2002C9.99106 4.94995 8.2002 6.74081 8.2002 8.94995V42.1499Z" fill="#060F42"/>
<path d="M98.7998 57.0499H73.7998V15.1499H93.0998L98.7998 36.0499V45.7499V47.1499V48.8499V57.0499Z" fill="white"/>
<path d="M97.1002 55.7499H88.3002L87.7002 54.9499C87.7002 54.9499 86.5002 53.3499 84.4002 53.3499C82.2002 53.3499 81.0002 54.9499 81.0002 54.9499L80.4002 55.8499H75.7002V51.8499H78.5002C79.7002 50.6499 81.7002 49.3499 84.5002 49.3499C87.2002 49.3499 89.9002 50.6499 91.0002 51.8499H97.1002V55.7499Z" fill="#FFCD1B"/>
<path d="M100.8 55.0499C100.8 57.259 99.0089 59.0499 96.7998 59.0499H75.7998C73.5907 59.0499 71.7998 57.259 71.7998 55.0499V17.1499C71.7998 14.9408 73.5907 13.1499 75.7998 13.1499H91.5458C93.349 13.1499 94.9293 14.3565 95.4045 16.096L100.658 35.3324C100.752 35.6759 100.8 36.0303 100.8 36.3863V55.0499ZM75.7998 51.0499C75.7998 53.259 77.5907 55.0499 79.7998 55.0499H92.7998C95.0089 55.0499 96.7998 53.259 96.7998 51.0499V36.882C96.7998 36.5288 96.753 36.1772 96.6607 35.8363L92.3999 20.1042C91.9277 18.3606 90.3455 17.1499 88.539 17.1499H79.7998C77.5907 17.1499 75.7998 18.9408 75.7998 21.1499V51.0499Z" fill="#060F42"/>
<path d="M27 12.95H18C16.8954 12.95 16 13.8454 16 14.95V18.95C16 20.0545 16.8954 20.95 18 20.95H27C28.1046 20.95 29 20.0545 29 18.95V14.95C29 13.8454 28.1046 12.95 27 12.95Z" fill="#FFCD1B"/>
<path d="M73.8 48.1499H2V57.0499H73.8V48.1499Z" fill="white"/>
<path d="M75.8 56.0499C75.8 57.7068 74.4569 59.0499 72.8 59.0499H3C1.34314 59.0499 0 57.7068 0 56.0499V49.1499C0 47.493 1.34315 46.1499 3 46.1499H72.8C74.4569 46.1499 75.8 47.493 75.8 49.1499V56.0499ZM4 52.5999C4 53.953 5.0969 55.0499 6.45 55.0499H69.35C70.7031 55.0499 71.8 53.953 71.8 52.5999C71.8 51.2468 70.7031 50.1499 69.35 50.1499H6.44999C5.0969 50.1499 4 51.2468 4 52.5999Z" fill="#060F42"/>
<path d="M91.7894 31.5358C92.0526 32.7795 91.104 33.95 89.8327 33.95H80.4004C79.2958 33.95 78.4004 33.0546 78.4004 31.95V22.25C78.4004 21.1454 79.2958 20.25 80.4004 20.25H87.7794C88.7244 20.25 89.5404 20.9114 89.7361 21.8358L91.7894 31.5358Z" fill="#01579B"/>
<path d="M15.8998 67.2499C19.2687 67.2499 21.9998 64.5189 21.9998 61.1499C21.9998 57.781 19.2687 55.0499 15.8998 55.0499C12.5309 55.0499 9.7998 57.781 9.7998 61.1499C9.7998 64.5189 12.5309 67.2499 15.8998 67.2499Z" fill="white"/>
<path d="M15.8998 69.2499C11.3998 69.2499 7.7998 65.6499 7.7998 61.1499C7.7998 56.6499 11.3998 53.0499 15.8998 53.0499C20.3998 53.0499 23.9998 56.6499 23.9998 61.1499C23.9998 65.6499 20.2998 69.2499 15.8998 69.2499ZM15.8998 57.0499C13.5998 57.0499 11.7998 58.8499 11.7998 61.1499C11.7998 63.4499 13.5998 65.2499 15.8998 65.2499C18.1998 65.2499 19.9998 63.4499 19.9998 61.1499C19.9998 58.8499 18.0998 57.0499 15.8998 57.0499Z" fill="#060F42"/>
<path d="M52.6 67.2499C55.9689 67.2499 58.7 64.5189 58.7 61.1499C58.7 57.781 55.9689 55.0499 52.6 55.0499C49.2311 55.0499 46.5 57.781 46.5 61.1499C46.5 64.5189 49.2311 67.2499 52.6 67.2499Z" fill="white"/>
<path d="M52.6 69.2499C48.1 69.2499 44.5 65.6499 44.5 61.1499C44.5 56.6499 48.1 53.0499 52.6 53.0499C57.1 53.0499 60.7 56.6499 60.7 61.1499C60.7 65.6499 57 69.2499 52.6 69.2499ZM52.6 57.0499C50.3 57.0499 48.5 58.8499 48.5 61.1499C48.5 63.4499 50.3 65.2499 52.6 65.2499C54.9 65.2499 56.7 63.4499 56.7 61.1499C56.7 58.8499 54.8 57.0499 52.6 57.0499Z" fill="#060F42"/>
<path d="M84.3998 67.2499C87.7687 67.2499 90.4998 64.5189 90.4998 61.1499C90.4998 57.781 87.7687 55.0499 84.3998 55.0499C81.0309 55.0499 78.2998 57.781 78.2998 61.1499C78.2998 64.5189 81.0309 67.2499 84.3998 67.2499Z" fill="white"/>
<path d="M84.3998 69.2499C79.8998 69.2499 76.2998 65.6499 76.2998 61.1499C76.2998 56.6499 79.8998 53.0499 84.3998 53.0499C88.8998 53.0499 92.4998 56.6499 92.4998 61.1499C92.4998 65.6499 88.8998 69.2499 84.3998 69.2499ZM84.3998 57.0499C82.0998 57.0499 80.2998 58.8499 80.2998 61.1499C80.2998 63.4499 82.0998 65.2499 84.3998 65.2499C86.6998 65.2499 88.4998 63.4499 88.4998 61.1499C88.4998 58.8499 86.6998 57.0499 84.3998 57.0499Z" fill="#060F42"/>
<path d="M99.3998 39.5499H96.2998C95.1952 39.5499 94.2998 40.4454 94.2998 41.5499C94.2998 42.6545 95.1952 43.5499 96.2998 43.5499H99.3998C100.504 43.5499 101.4 42.6545 101.4 41.5499C101.4 40.4454 100.504 39.5499 99.3998 39.5499Z" fill="#060F42"/>
<path d="M15.8996 63.45C17.1699 63.45 18.1996 62.4202 18.1996 61.15C18.1996 59.8797 17.1699 58.85 15.8996 58.85C14.6294 58.85 13.5996 59.8797 13.5996 61.15C13.5996 62.4202 14.6294 63.45 15.8996 63.45Z" fill="#060F42"/>
<path d="M52.5998 63.45C53.8701 63.45 54.8998 62.4202 54.8998 61.15C54.8998 59.8797 53.8701 58.85 52.5998 58.85C51.3295 58.85 50.2998 59.8797 50.2998 61.15C50.2998 62.4202 51.3295 63.45 52.5998 63.45Z" fill="#060F42"/>
<path d="M84.3996 63.45C85.6699 63.45 86.6996 62.4202 86.6996 61.15C86.6996 59.8797 85.6699 58.85 84.3996 58.85C83.1294 58.85 82.0996 59.8797 82.0996 61.15C82.0996 62.4202 83.1294 63.45 84.3996 63.45Z" fill="#060F42"/>
</g>
<defs>
<clipPath id="clip0_735_21457">
<rect width="101.4" height="68.3" fill="white" transform="translate(0 0.949951)"/>
</clipPath>
</defs>
</svg>
