<svg width="98" height="92" viewBox="0 0 98 92" fill="none" xmlns="http://www.w3.org/2000/svg">
<g clip-path="url(#clip0_735_21215)">
<path d="M90.8004 30.1C93.5004 30.1 95.7004 32.3 95.7004 35V84.8C95.7004 87.5 93.5004 89.7 90.8004 89.7H7.30039C4.60039 89.6 2.40039 87.4 2.40039 84.7V35C2.40039 32.3 4.60039 30.1 7.30039 30.1H33.4004" fill="white"/>
<path d="M90.8004 91.6H7.30039C3.50039 91.6 0.400391 88.5 0.400391 84.7V35C0.400391 31.2 3.50039 28.1 7.30039 28.1H33.4004V32.1H7.30039C5.70039 32.1 4.40039 33.4 4.40039 35V84.8C4.40039 86.3 5.70039 87.6 7.30039 87.6H90.8004C92.4004 87.6 93.7004 86.3 93.7004 84.7V35C93.7004 33.4 92.4004 32.1 90.8004 32.1V28.1C94.6004 28.1 97.7004 31.2 97.7004 35V84.8C97.7004 88.5 94.6004 91.6 90.8004 91.6Z" fill="#282D33"/>
<path d="M23.4008 61.2999H10.8008C9.69621 61.2999 8.80078 62.1954 8.80078 63.2999C8.80078 64.4045 9.69621 65.2999 10.8008 65.2999H23.4008C24.5054 65.2999 25.4008 64.4045 25.4008 63.2999C25.4008 62.1954 24.5054 61.2999 23.4008 61.2999Z" fill="#282D33"/>
<path d="M42.2008 72.4H10.8008C9.69621 72.4 8.80078 73.2955 8.80078 74.4C8.80078 75.5046 9.69621 76.4 10.8008 76.4H42.2008C43.3054 76.4 44.2008 75.5046 44.2008 74.4C44.2008 73.2955 43.3054 72.4 42.2008 72.4Z" fill="#282D33"/>
<path d="M44.2006 61.2999H31.6006C30.496 61.2999 29.6006 62.1954 29.6006 63.2999C29.6006 64.4045 30.496 65.2999 31.6006 65.2999H44.2006C45.3052 65.2999 46.2006 64.4045 46.2006 63.2999C46.2006 62.1954 45.3052 61.2999 44.2006 61.2999Z" fill="#282D33"/>
<path d="M64.9008 61.2999H52.3008C51.1962 61.2999 50.3008 62.1954 50.3008 63.2999C50.3008 64.4045 51.1962 65.2999 52.3008 65.2999H64.9008C66.0054 65.2999 66.9008 64.4045 66.9008 63.2999C66.9008 62.1954 66.0053 61.2999 64.9008 61.2999Z" fill="#282D33"/>
<path d="M85.7006 61.2999H73.1006C71.996 61.2999 71.1006 62.1954 71.1006 63.2999C71.1006 64.4045 71.996 65.2999 73.1006 65.2999H85.7006C86.8052 65.2999 87.7006 64.4045 87.7006 63.2999C87.7006 62.1954 86.8052 61.2999 85.7006 61.2999Z" fill="#282D33"/>
<path d="M23.3 42.5H11.5C10.3954 42.5 9.5 43.3954 9.5 44.5V51.5C9.5 52.6046 10.3954 53.5 11.5 53.5H23.3C24.4046 53.5 25.3 52.6046 25.3 51.5V44.5C25.3 43.3954 24.4046 42.5 23.3 42.5Z" fill="#F8C44F"/>
<path d="M75.9002 9.70002C70.3002 8.70002 65.5002 6.30002 62.5002 3.40002C59.5002 6.30002 54.7002 8.70002 49.1002 9.70002C45.6002 10.4 42.2002 10.4 39.2002 9.90002V29.1C39.2002 43.9 49.1002 50.3 62.5002 54.3C76.0002 50.4 85.8002 43.9 85.8002 29.1V10C82.9002 10.4 79.4002 10.4 75.9002 9.70002Z" fill="white"/>
<path d="M62.5002 56.4L61.9002 56.2C50.4002 52.9 37.2002 46.8 37.2002 29.2V7.59998L39.5002 7.99998C42.4002 8.39998 45.6002 8.39998 48.8002 7.79998C53.8002 6.89998 58.3002 4.69998 61.2002 1.99998L62.5002 0.599976L63.9002 1.99998C66.7002 4.79998 71.2002 6.89998 76.3002 7.79998C79.5002 8.39998 82.7002 8.49998 85.6002 7.99998L87.9002 7.59998V29.2C87.9002 46.8 74.7002 52.9 63.1002 56.3L62.5002 56.4ZM41.2002 12.2V29.2C41.2002 40.9 47.6002 47.8 62.5002 52.3C77.4002 47.8 83.8002 40.9 83.8002 29.2V12.2C81.1002 12.4 78.3002 12.2 75.5002 11.7C70.4002 10.8 65.8002 8.69998 62.5002 6.09998C59.2002 8.79998 54.5002 10.8 49.5002 11.7C46.7002 12.2 43.9002 12.4 41.2002 12.2Z" fill="#282D33"/>
<path d="M62.5002 48.1C50.1002 44.2 45.2002 38.8 45.2002 29.2V16.2C46.9002 16.1 48.6002 15.9 50.2002 15.6C54.8002 14.7 59.0002 13.1 62.5002 10.9C66.0002 13.1 70.2002 14.7 74.8002 15.6C76.5002 15.9 78.2002 16.1 79.8002 16.2V29.1C79.9002 38.7 75.0002 44.1 62.5002 48.1Z" fill="#5EB4E7"/>
<path d="M62.5 39.1999C68.5751 39.1999 73.5 34.2751 73.5 28.2C73.5 22.1248 68.5751 17.2 62.5 17.2C56.4249 17.2 51.5 22.1248 51.5 28.2C51.5 34.2751 56.4249 39.1999 62.5 39.1999Z" fill="white"/>
<path d="M67.2008 24.1L61.6008 31.2L57.8008 28.8" fill="white"/>
<path d="M63.1279 32.4077C62.4863 33.2002 61.3513 33.3832 60.4932 32.8324L56.9492 30.5579C56.0342 29.9707 55.7587 28.7585 56.3301 27.8335C56.9175 26.8824 58.1723 26.6004 59.1101 27.2088L59.585 27.5168C60.4459 28.0752 61.5897 27.8916 62.2325 27.0917L64.365 24.4378C65.0502 23.5851 66.2934 23.4411 67.1554 24.1145L67.1972 24.1472C68.0783 24.8356 68.2239 26.1126 67.5204 26.9817L63.1279 32.4077Z" fill="#282D33"/>
</g>
<defs>
<clipPath id="clip0_735_21215">
<rect width="97.3" height="91" fill="white" transform="translate(0.400391 0.599976)"/>
</clipPath>
</defs>
</svg>
