<svg width="60" height="61" viewBox="0 0 60 61" fill="none" xmlns="http://www.w3.org/2000/svg">
<path d="M46.1325 14.1524L45.4854 10.3619L51.5871 4.26026C48.2589 2.78106 44.1911 3.33574 41.3251 6.20169C38.829 8.69784 37.9969 12.3034 39.0139 15.3542L15.2542 39.1139C12.1109 38.1894 8.59785 38.929 6.1017 41.4251C3.3282 44.1986 2.68105 48.3589 4.16025 51.6871L10.262 45.5854L14.0524 46.2326L14.6995 50.023L8.69029 56.0322C11.926 57.419 15.9014 56.7718 18.6749 53.9983C21.171 51.5022 22.0031 47.8967 20.9861 44.8458L44.7458 21.0861C47.8891 22.0106 51.4022 21.271 53.8983 18.7749C56.5794 16.0938 57.319 12.026 55.9322 8.79028L49.923 14.7995L46.1325 14.1524Z" stroke="#060F42" stroke-width="2.5" stroke-miterlimit="10"/>
<path d="M12.9423 8.14311L12.5725 12.5807L8.04246 13.0429L3.51239 6.66388L6.56323 3.61304L12.9423 8.14311Z" stroke="#060F42" stroke-width="2.5" stroke-miterlimit="10"/>
<path d="M12.5733 12.5805L29.8614 30.4234" stroke="#060F42" stroke-width="2.5" stroke-miterlimit="10"/>
<path d="M31.835 28.0798L27.7022 32.2126C27.3117 32.6031 27.3117 33.2363 27.7022 33.6268L27.8596 33.7842C28.2502 34.1747 28.8833 34.1747 29.2739 33.7842L33.4066 29.6514C33.7972 29.2609 33.7972 28.6277 33.4066 28.2372L33.2492 28.0798C32.8587 27.6893 32.2255 27.6893 31.835 28.0798Z" fill="#FFCD1B"/>
<path d="M35.5655 30.4509L30.0734 35.943C29.2923 36.724 29.2923 37.9903 30.0734 38.7714L46.9368 55.6348C47.7179 56.4158 48.9842 56.4158 49.7652 55.6348L55.2573 50.1427C56.0384 49.3617 56.0384 48.0953 55.2573 47.3143L38.3939 30.4509C37.6128 29.6698 36.3465 29.6698 35.5655 30.4509Z" fill="#FFCD1B"/>
<path d="M34.4239 27.8949L27.5177 34.8012C27.1271 35.1917 27.1271 35.8249 27.5177 36.2154L27.9524 36.6502C28.343 37.0407 28.9761 37.0407 29.3667 36.6502L36.2729 29.7439C36.6635 29.3534 36.6635 28.7202 36.2729 28.3297L35.8382 27.8949C35.4476 27.5044 34.8145 27.5044 34.4239 27.8949Z" fill="#060F42"/>
<path d="M32.9121 36.063L49.9229 53.0738" stroke="#060F42" stroke-width="2.5" stroke-miterlimit="10"/>
<path d="M35.6855 33.2894L52.6963 50.3002" stroke="#060F42" stroke-width="2.5" stroke-miterlimit="10"/>
</svg>
