<svg width="73" height="101" viewBox="0 0 73 101" fill="none" xmlns="http://www.w3.org/2000/svg">
<g clip-path="url(#clip0_735_21216)">
<path d="M68.5004 50.8H64.5004V31.8C64.5004 16.5 52.0004 4 36.7004 4C21.4004 4 8.90039 16.5 8.90039 31.8V50.8H4.90039V31.8C4.90039 14.3 19.2004 0 36.7004 0C54.2004 0 68.5004 14.3 68.5004 31.8V50.8Z" fill="#282D33"/>
<path d="M69.3004 53.7C69.3004 57.1 66.5004 59.9 63.1004 59.9H62.6004C59.2004 59.9 56.4004 57.1 56.4004 53.7V42.4C56.4004 39 59.2004 36.2 62.6004 36.2H63.1004C66.5004 36.2 69.3004 39 69.3004 42.4V53.7Z" fill="#5EB4E7"/>
<path d="M62.3004 79.2C62.3004 82.5 59.5004 85.1 56.0004 85.1H17.2004C13.7004 85.1 10.9004 82.5 10.9004 79.2V39.3C10.9004 36 13.7004 33.4 17.2004 33.4H56.0004C59.5004 33.4 62.3004 36 62.3004 39.3V79.2Z" fill="#F8C44F"/>
<path d="M60.5004 36.3999V50.7999C60.5004 63.8999 49.9004 74.5999 36.7004 74.5999C23.6004 74.5999 12.9004 63.9999 12.9004 50.7999V40.7999L23.7004 23.7999L60.5004 28.7999" fill="white"/>
<path d="M36.7004 76.6C22.5004 76.6 10.9004 65 10.9004 50.8V40.2L22.7004 21.6L60.7004 26.8L60.2004 30.8L24.7004 25.9L14.9004 41.3V50.7C14.9004 62.7 24.7004 72.5 36.7004 72.5C48.7004 72.5 58.5004 62.7 58.5004 50.7V36.4H62.5004V50.8C62.5004 65 50.9004 76.6 36.7004 76.6Z" fill="#282D33"/>
<path d="M12.9004 31.8001V40.9001C21.3004 40.6001 28.0004 31.9001 28.0004 21.0001C28.0004 17.2001 27.2004 13.7001 25.7004 10.7001C18.1004 14.6001 12.9004 22.6001 12.9004 31.8001Z" fill="#F8C44F"/>
<path d="M10.9004 42.9V31.8C10.9004 22.1 16.2004 13.4 24.8004 8.90002L26.6004 7.90002L27.5004 9.80002C29.1004 13.2 30.0004 17.1 30.0004 21C30.0004 33 22.5004 42.6 12.9004 42.9H10.9004ZM24.8004 13.5C18.7004 17.5 14.9004 24.3 14.9004 31.7V38.5C21.2004 37 26.0004 29.6 26.0004 20.9C26.1004 18.4 25.6004 15.9 24.8004 13.5Z" fill="#F8C44F"/>
<path d="M2.7002 100.2V90.4C2.7002 85.2 7.5002 81 13.3002 81H60.0002C65.9002 81 70.6002 85.2 70.6002 90.4V100.2" fill="white"/>
<path d="M72.6073 98.1567C72.6579 99.2698 71.7691 100.2 70.6548 100.2C69.5753 100.2 68.7002 99.3249 68.7002 98.2454V90.4C68.7002 86.3 64.8002 83 60.1002 83H13.3002C8.6002 83 4.7002 86.4 4.7002 90.4V98.2C4.7002 99.3046 3.80476 100.2 2.7002 100.2C1.59563 100.2 0.700195 99.3046 0.700195 98.2V90.4C0.700195 84.2 6.4002 79 13.3002 79H60.0002C67.0002 79 72.6002 84.1 72.6002 90.4V98L72.6073 98.1567Z" fill="#282D33"/>
<path d="M37.05 87.5H36.95C35.873 87.5 35 88.373 35 89.45C35 90.527 35.873 91.4 36.95 91.4H37.05C38.127 91.4 39 90.527 39 89.45C39 88.373 38.127 87.5 37.05 87.5Z" fill="#282D33"/>
<path d="M37.05 96.3H36.95C35.873 96.3 35 97.1731 35 98.25C35 99.327 35.873 100.2 36.95 100.2H37.05C38.127 100.2 39 99.327 39 98.25C39 97.1731 38.127 96.3 37.05 96.3Z" fill="#282D33"/>
<path d="M16 53.7C16 57.1 13.2 59.9 9.8 59.9H9.2C5.8 59.9 3 57.1 3 53.7V42.4C3 39 5.8 36.2 9.2 36.2H9.7C13.1 36.2 15.9 39 15.9 42.4V53.7H16Z" fill="#5EB4E7"/>
<path d="M40.2998 55.3V47C40.2998 45.8954 39.4044 45 38.2998 45C37.1952 45 36.2998 45.8954 36.2998 47V55.3C36.2998 56.4046 37.1952 57.3 38.2998 57.3C39.4044 57.3 40.2998 56.4046 40.2998 55.3Z" fill="#282D33"/>
<path d="M8.90039 50.8H4.90039V31.8C4.90039 14.3 19.2004 0 36.7004 0V4C21.4004 4 8.90039 16.5 8.90039 31.8V50.8Z" fill="#282D33"/>
<path d="M36.6998 8C30.3998 8 24.5998 10.5 20.2998 14.5C20.6998 30 35.3998 42.4 53.3998 42.4C55.7998 42.4 58.1998 42.2 60.4998 41.7V31.8C60.4998 18.6 49.7998 8 36.6998 8Z" fill="#F8C44F"/>
<path d="M53.3998 44.4C34.1998 44.4 18.7998 31.3 18.2998 14.6V13.7L18.8998 13.1C23.7998 8.5 30.0998 6 36.6998 6C50.8998 6 62.4998 17.6 62.4998 31.8V43.4L60.8998 43.7C58.3998 44.1 55.8998 44.4 53.3998 44.4ZM22.3998 15.4C23.2998 29.2 37.0998 40.4 53.4998 40.4C55.1998 40.4 56.8998 40.3 58.5998 40V31.8C58.4998 19.8 48.6998 10 36.6998 10C31.3998 10 26.2998 11.9 22.3998 15.4Z" fill="#F8C44F"/>
<path d="M60.3 69.7H42.5C41.3954 69.7 40.5 68.8046 40.5 67.7C40.5 66.5955 41.3954 65.7 42.5 65.7H60.3C61.4 65.7 62.3 64.8 62.3 63.7V60.9C62.3 59.7955 63.1954 58.9 64.3 58.9C65.4046 58.9 66.3 59.7955 66.3 60.9V63.7C66.3 67 63.7 69.7 60.3 69.7Z" fill="#282D33"/>
</g>
<defs>
<clipPath id="clip0_735_21216">
<rect width="72" height="100.2" fill="white" transform="translate(0.700195)"/>
</clipPath>
</defs>
</svg>
