<svg width="56" height="61" viewBox="0 0 56 61" fill="none" xmlns="http://www.w3.org/2000/svg">
<path d="M45.5698 21.0459L45.5698 21.0458L45.5659 21.049C45.0999 21.4374 44.7637 22.0233 44.491 22.9971C44.219 23.9685 44.0024 25.3547 43.7952 27.3738C43.772 27.5997 43.4923 27.6829 43.3504 27.5192L42.546 26.591C42.2507 26.2502 41.7235 26.2453 41.4218 26.5805L32.505 36.488C32.3811 36.6257 32.3125 36.8045 32.3125 36.9897V48.863C32.3125 49.2772 32.6483 49.613 33.0625 49.613H33.5583C33.9726 49.613 34.3083 49.2772 34.3083 48.863V37.5851C34.3083 37.5242 34.3306 37.4655 34.3708 37.4198L41.644 29.1676C41.7444 29.0536 41.9225 29.0548 42.0213 29.1702L43.306 30.6689C43.3494 30.7196 43.3707 30.7859 43.3649 30.8519C43.2933 31.6656 43.2224 32.2026 43.1533 32.5507C43.1186 32.7248 43.0857 32.8451 43.056 32.9262C43.0285 33.0013 43.0092 33.0271 43.0064 33.0307L38.1507 37.609C37.843 37.8991 37.8359 38.386 38.1349 38.685L38.4796 39.0297C38.7634 39.3135 39.2203 39.3236 39.5163 39.0526L49.6216 29.8013C49.7768 29.6592 49.8652 29.4585 49.8652 29.2481V29.1815C50.0809 27.026 50.3656 24.6994 50.6526 22.7838C50.7963 21.824 50.9404 20.9695 51.0763 20.2924C51.2139 19.6064 51.3388 19.1261 51.4394 18.8978C51.4453 18.8842 51.4566 18.8704 51.4775 18.8588C51.7743 18.6949 52.2552 18.5797 52.7156 18.5285C52.8277 18.5161 52.942 18.6095 52.9366 18.7584L52.5114 30.5241C52.5098 30.5673 52.4971 30.6093 52.4744 30.6461L52.6874 30.7772L52.4744 30.6461L43.2441 45.6454C43.0201 46.0094 43.1451 46.4866 43.5186 46.6941L43.992 46.9571L44.1134 46.7386L43.992 46.9571C44.3414 47.1513 44.7817 47.0372 44.9929 46.6979L54.5445 31.3576C54.6129 31.2477 54.6518 31.1218 54.6571 30.9924L55.2244 17.3792C55.2442 16.9034 54.8214 16.5299 54.3517 16.6081L54.1024 16.6497C54.0881 16.6521 54.0771 16.6528 54.0678 16.6526C54.047 16.6521 54.0219 16.6514 53.9929 16.6505C53.7465 16.6431 53.2148 16.6271 52.5922 16.7012C51.899 16.7836 51.0683 16.9801 50.374 17.443C50.1098 17.6191 49.8821 17.9634 49.6879 18.3894C49.4892 18.8254 49.3088 19.3849 49.1586 20.0362C49.1305 20.1577 49.0232 20.2462 48.8979 20.2504C48.3612 20.2685 47.7162 20.3231 47.118 20.4416C46.5292 20.5581 45.9478 20.7435 45.5698 21.0459ZM45.6749 28.7513L45.6751 28.7514L45.6759 28.7411C45.6807 28.6835 45.6857 28.6237 45.6908 28.5621C45.7641 27.6777 45.8703 26.3967 46.0385 25.2326C46.1285 24.6096 46.2352 24.0272 46.3622 23.5607C46.4256 23.3275 46.4928 23.1284 46.563 22.9702C46.6347 22.8084 46.7024 22.7063 46.759 22.6513L46.759 22.6513C46.7591 22.6512 46.7595 22.6508 46.7609 22.6499C46.7616 22.6495 46.7626 22.6488 46.7641 22.648C46.766 22.647 46.7686 22.6457 46.772 22.6442C47.0253 22.5323 47.7009 22.3369 48.4644 22.2657C48.5902 22.254 48.7108 22.3667 48.6887 22.5252C48.4238 24.425 48.1589 26.5375 47.8944 28.6539C47.8869 28.7136 47.8582 28.7685 47.8135 28.8087L46.0808 30.3682C45.9981 30.4427 45.869 30.4558 45.7388 30.3884C45.6081 30.3208 45.5365 30.2022 45.5457 30.0853C45.5776 29.6815 45.6136 29.2416 45.6749 28.7513Z" fill="#060F42" stroke="#060F42" stroke-width="0.5"/>
<path d="M3.52577 30.7961L3.31285 30.9271L3.52577 30.7961C3.50313 30.7593 3.49041 30.7173 3.48885 30.6741L3.06357 18.9083C3.05819 18.7594 3.17249 18.666 3.28455 18.6784C3.75655 18.7309 4.24821 18.8505 4.54221 19.0198C4.55862 19.0292 4.56325 19.0369 4.564 19.0383C4.66067 19.2193 4.79422 19.6629 4.94456 20.3334C5.0921 20.9915 5.24967 21.8382 5.40229 22.8002C5.70714 24.722 5.99068 27.0945 6.13504 29.3271V29.398C6.13504 29.6084 6.22341 29.8091 6.37859 29.9512L16.4839 39.2025C16.7799 39.4735 17.2368 39.4634 17.5206 39.1796L17.8602 38.8401C18.1621 38.5382 18.1514 38.0455 17.8366 37.7569L12.9987 33.3221C12.9477 33.2754 12.9107 33.201 12.8999 33.1093C12.8557 32.7341 12.7246 32.0695 12.5118 31.0049C12.4967 30.9293 12.5172 30.8509 12.5671 30.7928L13.8293 29.3201C13.9282 29.2048 14.1062 29.2036 14.2067 29.3175L21.4798 37.5698C21.5201 37.6154 21.5423 37.6742 21.5423 37.7351V49.0129C21.5423 49.4271 21.878 49.7629 22.2923 49.7629H22.7881C23.2023 49.7629 23.5381 49.4272 23.5381 49.0129V37.1397C23.5381 36.9544 23.4695 36.7757 23.3456 36.638L14.4288 26.7305C14.1271 26.3952 13.5999 26.4002 13.3046 26.741L12.5002 27.6691C12.3584 27.8328 12.0787 27.7496 12.0555 27.5238C11.8482 25.5046 11.6317 24.1185 11.3596 23.147C11.0869 22.1733 10.7507 21.5873 10.2847 21.1989L10.2847 21.1989L10.2808 21.1958C9.90281 20.8934 9.32144 20.708 8.73262 20.5915C8.13445 20.473 7.48946 20.4184 6.9527 20.4003C6.82742 20.3961 6.72012 20.3076 6.69208 20.1861C6.54186 19.5348 6.36145 18.9753 6.16269 18.5393C5.9685 18.1134 5.74084 17.7691 5.47662 17.5929C4.78663 17.133 3.96204 16.9361 3.27162 16.8527C2.64354 16.7768 2.1067 16.793 1.85804 16.8004C1.83226 16.8012 1.80957 16.8019 1.7902 16.8024C1.77855 16.8026 1.76545 16.8016 1.7484 16.7982L1.67316 16.7831C1.19651 16.6878 0.756478 17.0641 0.776714 17.5498L1.34306 31.1424C1.34845 31.2718 1.38727 31.3976 1.45574 31.5076L11.0073 46.8479C11.2185 47.1872 11.6588 47.3012 12.0082 47.1071L12.4816 46.8441C12.8551 46.6365 12.9801 46.1593 12.7561 45.7954L3.52577 30.7961ZM9.05038 22.6149L9.06017 22.6247L9.07098 22.6333C9.1212 22.6735 9.18788 22.7601 9.26171 22.9142C9.33343 23.0639 9.40254 23.2573 9.46817 23.4881C9.59935 23.9495 9.70966 24.5355 9.80254 25.167C9.97626 26.3483 10.0851 27.6613 10.1598 28.5625C10.165 28.6241 10.1699 28.6838 10.1747 28.7414L10.1745 28.7414L10.1758 28.7517C10.237 29.2419 10.273 29.6819 10.3049 30.0857C10.3141 30.2026 10.2425 30.3212 10.1118 30.3888C9.98167 30.4561 9.85258 30.443 9.76986 30.3686L8.04946 28.8202C8.00118 28.7768 7.97145 28.7159 7.96685 28.6502C7.82756 26.6639 7.57311 24.4621 7.20263 22.5479C7.1704 22.3813 7.29666 22.2484 7.43747 22.2566C7.83642 22.2799 8.20543 22.3265 8.49936 22.3942C8.64635 22.428 8.76967 22.4661 8.86641 22.5068C8.96591 22.5486 9.02276 22.5872 9.05038 22.6149Z" fill="#060F42" stroke="#060F42" stroke-width="0.5"/>
<path d="M28.3684 28.5902C34.6471 28.5902 39.7369 23.5004 39.7369 17.2218C39.7369 10.9432 34.6471 5.85339 28.3684 5.85339C22.0898 5.85339 17 10.9432 17 17.2218C17 23.5004 22.0898 28.5902 28.3684 28.5902Z" fill="#FFCD1B"/>
<path d="M28.9878 24.8534H28.2005C28.0065 24.8534 27.9095 24.7523 27.9095 24.5502V23.3964C27.9095 23.2357 27.7793 23.1055 27.6186 23.1055C26.8085 23.1055 26.1695 22.8617 25.7017 22.3742C25.2339 21.8748 25 21.1911 25 20.3231V19.9128C25 19.6988 25.1027 19.5918 25.3081 19.5918H26.3863C26.5803 19.5918 26.6773 19.6988 26.6773 19.9128V20.1804C26.6773 20.6798 26.7857 21.0425 27.0024 21.2684C27.2192 21.4824 27.5729 21.5894 28.0636 21.5894H28.9535C29.4328 21.5894 29.7808 21.4765 29.9976 21.2505C30.2143 21.0127 30.3227 20.6322 30.3227 20.109V19.5383C30.3227 19.0389 30.1744 18.7 29.8777 18.5216C29.5811 18.3314 29.1361 18.2184 28.5428 18.1828C27.6985 18.1471 27.1108 18.0817 26.78 17.9866C26.4491 17.8914 26.1467 17.7428 25.8729 17.5407C25.291 17.1245 25 16.3576 25 15.2398V14.4016C25 13.5335 25.2282 12.8558 25.6846 12.3683C26.1524 11.8689 26.7971 11.6191 27.6186 11.6191C27.7793 11.6191 27.9095 11.4889 27.9095 11.3282V10.1566C27.9095 9.95446 28.0065 9.85339 28.2005 9.85339H28.9878C29.1817 9.85339 29.2787 9.95446 29.2787 10.1566V11.5336C29.2787 11.5808 29.317 11.6191 29.3643 11.6191C30.1402 11.6191 30.7506 11.8689 31.1956 12.3683C31.652 12.8677 31.8802 13.5454 31.8802 14.4016V14.7939C31.8802 15.008 31.7832 15.115 31.5892 15.115H30.511C30.3056 15.115 30.2029 15.008 30.2029 14.7939V14.5621C30.2029 14.0627 30.0945 13.706 29.8777 13.4919C29.6724 13.266 29.3244 13.153 28.8337 13.153H28.0465C27.5444 13.153 27.1907 13.2719 26.9853 13.5098C26.78 13.7357 26.6773 14.1281 26.6773 14.6869V15.2933C26.6773 15.7452 26.8199 16.0603 27.1051 16.2386C27.4018 16.417 27.8525 16.524 28.4572 16.5597L29.3301 16.5954C30.1288 16.6429 30.7734 16.8807 31.2641 17.3088C31.7547 17.725 32 18.4444 32 19.4669V20.3231C32 21.1911 31.7604 21.8748 31.2812 22.3742C30.8134 22.8617 30.1744 23.1055 29.3643 23.1055C29.317 23.1055 29.2787 23.1438 29.2787 23.191V24.5502C29.2787 24.7523 29.1817 24.8534 28.9878 24.8534Z" fill="#060F42"/>
<path d="M25.2795 48.2135H9.92773C9.37545 48.2135 8.92773 48.6612 8.92773 49.2135V53.3465C8.92773 53.8988 9.37545 54.3465 9.92773 54.3465H25.2795C25.8318 54.3465 26.2795 53.8988 26.2795 53.3465V49.2135C26.2795 48.6612 25.8318 48.2135 25.2795 48.2135Z" fill="#01579B"/>
<path d="M45.6233 48.2135H30.2715C29.7192 48.2135 29.2715 48.6612 29.2715 49.2135V53.3465C29.2715 53.8988 29.7192 54.3465 30.2715 54.3465H45.6233C46.1756 54.3465 46.6233 53.8988 46.6233 53.3465V49.2135C46.6233 48.6612 46.1756 48.2135 45.6233 48.2135Z" fill="#01579B"/>
</svg>
