<svg width="102" height="76" viewBox="0 0 102 76" fill="none" xmlns="http://www.w3.org/2000/svg">
<g clip-path="url(#clip0_735_21365)">
<g clip-path="url(#clip1_735_21365)">
<path d="M100.896 44.2079C101.506 46.3302 100.281 48.5455 98.1591 49.1569L38.8975 66.2323C37.7587 66.5604 36.5331 66.3666 35.551 65.7033L13.3568 50.7118C11.7594 49.6327 11.1588 47.5678 11.9283 45.8004L22.6488 21.1767C23.1249 20.0831 24.0642 19.2591 25.2104 18.9293L84.5559 1.85608C86.6792 1.24524 88.8956 2.47149 89.5061 4.59484L100.896 44.2079Z" fill="#5EB4E7"/>
<path d="M98.5996 69.45C98.5996 71.6592 96.8087 73.45 94.5996 73.45H32.9731C31.786 73.45 30.6602 72.9227 29.9002 72.0108L12.7292 51.4056C11.495 49.9245 11.4929 47.7738 12.7241 46.2902L29.9 25.5954C30.6599 24.6798 31.7881 24.15 32.978 24.15H94.5996C96.8087 24.15 98.5996 25.9409 98.5996 28.15V69.45Z" fill="white"/>
<path d="M100.651 71.5019C100.623 73.6906 98.8405 75.45 96.6516 75.45H31.9771C30.7879 75.45 29.6604 74.9209 28.9004 74.0062L10.1285 51.412C8.89531 49.9276 8.8977 47.7744 10.1342 46.2928L29.0007 23.687C29.7607 22.7764 30.8856 22.25 32.0717 22.25H96.7C98.9091 22.25 100.7 24.0409 100.7 26.25V67.75L100.651 71.5019ZM30.8005 70.0081C31.5605 70.9216 32.6873 71.45 33.8756 71.45H92.6C94.8091 71.45 96.6 69.6591 96.6 67.45V30.15C96.6 27.9409 94.8091 26.15 92.6 26.15H33.8809C32.6895 26.15 31.5602 26.6811 30.8003 27.5986L15.3177 46.293C14.0898 47.7756 14.0922 49.9225 15.3233 51.4024L30.8005 70.0081Z" fill="#282D33"/>
<path d="M38.8998 55.95C42.821 55.95 45.9998 52.7712 45.9998 48.85C45.9998 44.9288 42.821 41.75 38.8998 41.75C34.9786 41.75 31.7998 44.9288 31.7998 48.85C31.7998 52.7712 34.9786 55.95 38.8998 55.95Z" fill="#5EB4E7"/>
<path d="M38.8998 57.85C33.8998 57.85 29.7998 53.75 29.7998 48.75C29.7998 43.75 33.8998 39.65 38.8998 39.65C43.8998 39.65 47.9998 43.75 47.9998 48.75C47.9998 53.75 43.8998 57.85 38.8998 57.85ZM38.8998 43.75C36.0998 43.75 33.7998 46.05 33.7998 48.85C33.7998 51.65 36.0998 53.95 38.8998 53.95C41.6998 53.95 43.9998 51.65 43.9998 48.85C43.9998 46.05 41.6998 43.75 38.8998 43.75Z" fill="#282D33"/>
<path d="M36.9002 46.85H2.7002C1.59563 46.85 0.700195 47.7454 0.700195 48.85C0.700195 49.9545 1.59563 50.85 2.7002 50.85H36.9002C38.0048 50.85 38.9002 49.9545 38.9002 48.85C38.9002 47.7454 38.0048 46.85 36.9002 46.85Z" fill="#282D33"/>
<path d="M72.5002 64.1501C80.9502 64.1501 87.8002 57.3 87.8002 48.85C87.8002 40.4001 80.9502 33.55 72.5002 33.55C64.0502 33.55 57.2002 40.4001 57.2002 48.85C57.2002 57.3 64.0502 64.1501 72.5002 64.1501Z" fill="#F8C44F"/>
<path d="M72.5006 35.15L76.9006 44.15L86.8006 45.55L79.6006 52.55L81.3006 62.45L72.5006 57.75L63.6006 62.45L65.3006 52.55L58.1006 45.55L68.0006 44.15L72.5006 35.15Z" fill="white"/>
<path d="M83.6708 64.0568C83.8058 64.8734 82.9469 65.4912 82.2156 65.1033L72.969 60.1986C72.6759 60.0431 72.3249 60.0431 72.0318 60.1986L62.7995 65.0957C62.0657 65.485 61.2046 64.8616 61.3454 64.0429L63.1115 53.7672C63.1672 53.4433 63.0602 53.1128 62.8253 52.883L55.3535 45.5719C54.7602 44.9914 55.0917 43.9825 55.9137 43.8669L66.178 42.4235C66.5049 42.3775 66.7881 42.1732 66.9347 41.8774L71.6044 32.4574C71.9718 31.7162 73.0289 31.7162 73.3963 32.4574L78.0679 41.8811C78.2135 42.1748 78.4939 42.3785 78.8182 42.4263L89.2055 43.9562C90.0237 44.0767 90.3503 45.0819 89.7591 45.6603L82.2726 52.9859C82.0393 53.2141 81.9321 53.5418 81.9853 53.8637L83.6708 64.0568ZM72.0346 55.7904C72.3263 55.6399 72.6733 55.6421 72.9631 55.7963L76.8949 57.889C77.6296 58.2801 78.4925 57.6549 78.3499 56.8349L77.5904 52.4678C77.5341 52.1436 77.6407 51.8125 77.8757 51.5822L81.0574 48.4641C81.6486 47.8847 81.3201 46.879 80.5009 46.7602L76.1217 46.1256C75.7954 46.0783 75.5134 45.8732 75.3678 45.5774L73.3976 41.5735C73.0312 40.8288 71.9696 40.8288 71.6031 41.5735L69.6329 45.5774C69.4874 45.8732 69.2054 46.0783 68.8791 46.1256L64.4998 46.7602C63.6806 46.879 63.3521 47.8847 63.9433 48.4641L67.1239 51.5811C67.3595 51.812 67.4661 52.1442 67.4088 52.4691L66.6513 56.7615C66.5075 57.5765 67.3593 58.2035 68.0947 57.8239L72.0346 55.7904Z" fill="#282D33"/>
</g>
</g>
<defs>
<clipPath id="clip0_735_21365">
<rect width="101.3" height="74.7" fill="white" transform="translate(0.700195 0.75)"/>
</clipPath>
<clipPath id="clip1_735_21365">
<rect width="101.3" height="74.7" fill="white" transform="translate(0.700195 0.75)"/>
</clipPath>
</defs>
</svg>
