<svg width="36" height="36" viewBox="0 0 36 36" fill="none" xmlns="http://www.w3.org/2000/svg">
<path d="M12.375 33.75C13.8247 33.75 15 32.5747 15 31.125C15 29.6753 13.8247 28.5 12.375 28.5C10.9253 28.5 9.75 29.6753 9.75 31.125C9.75 32.5747 10.9253 33.75 12.375 33.75Z" fill="#060F42"/>
<path d="M26.625 33.75C28.0747 33.75 29.25 32.5747 29.25 31.125C29.25 29.6753 28.0747 28.5 26.625 28.5C25.1753 28.5 24 29.6753 24 31.125C24 32.5747 25.1753 33.75 26.625 33.75Z" fill="#060F42"/>
<path d="M2.67969 4.5H6.75112L12.0012 20.25M8.42973 9.48833L31.2395 11.0773C32.2052 11.1446 32.9258 11.9943 32.8343 12.9581L32.4516 16.9903C32.376 17.7867 31.762 18.4263 30.9692 18.5341L10.5963 21.3053C9.41297 21.4663 8.59982 22.5776 8.80454 23.7542V23.7542C8.98013 24.7633 9.85603 25.5 10.8803 25.5H30.9654" stroke="#060F42" stroke-width="2" stroke-linecap="round" stroke-linejoin="round"/>
</svg>
