<svg width="32" height="32" viewBox="0 0 32 32" fill="none" xmlns="http://www.w3.org/2000/svg">
<g clip-path="url(#clip0_1224_86359)">
<path d="M17.0002 4.80005H25.0002C26.2002 4.80005 27.3002 5.80005 27.3002 7.10005V25.1C27.3002 26.3001 26.3002 27.4 25.0002 27.4H17.0002C15.8002 27.4 14.7002 26.4 14.7002 25.1V7.00005C14.8002 5.80005 15.8002 4.80005 17.0002 4.80005Z" stroke="#060F42" stroke-width="1.5"/>
<path d="M24.7002 9.5H17.7002V11H24.7002V9.5Z" fill="#060F42"/>
<path d="M24.7002 12.5H17.7002V14H24.7002V12.5Z" fill="#060F42"/>
<path d="M21 23C21.5523 23 22 22.5523 22 22C22 21.4477 21.5523 21 21 21C20.4477 21 20 21.4477 20 22C20 22.5523 20.4477 23 21 23Z" fill="#060F42"/>
<path d="M14.5 11.3H7.0002C5.8002 11.3 4.7002 12.3 4.7002 13.6V20.5C4.7002 21.7 5.7002 22.8 7.0002 22.8H14.5V11.3Z" stroke="#060F42" stroke-width="1.5"/>
<path d="M14.6996 25V23H14.1184H12.3746H11.5996V23.8V24.8V25.6H12.3746H14.1184H14.6996C14.6996 25.3 14.6996 25.2 14.6996 25Z" stroke="#060F42" stroke-width="1.5"/>
<path d="M14.8 25H9.8C9.3 25 9 25.3 9 25.8C9 26.3 9.3 26.6 9.8 26.6H15.4C15 26.1 14.8 25.6 14.8 25Z" fill="#060F42"/>
</g>
<defs>
<clipPath id="clip0_1224_86359">
<rect width="24" height="24" fill="white" transform="translate(4 4)"/>
</clipPath>
</defs>
</svg>
