<svg width="32" height="32" viewBox="0 0 32 32" fill="none" xmlns="http://www.w3.org/2000/svg">
<path d="M24.3198 11.4765L24.3506 11.6466L24.4254 11.7488C24.4292 11.757 24.4342 11.7679 24.4405 11.7821C24.4654 11.8385 24.4994 11.9204 24.5422 12.0284C24.6275 12.243 24.7388 12.5377 24.8681 12.8886C25.1262 13.589 25.4495 14.4958 25.7666 15.3956C26.0834 16.2947 26.3931 17.1841 26.6236 17.849C26.7388 18.1814 26.8342 18.4575 26.9008 18.6505L26.9779 18.8742L26.9981 18.933L27.0029 18.947C27.7033 21.108 26.8695 23.0694 25.354 23.607C23.8466 24.1418 21.9359 23.1002 21.2395 20.9593L21.2256 20.9163L21.2065 20.8753L20.0346 18.3524L19.8329 17.9184H19.3544H12.557H12.0778L11.8764 18.3533L10.7826 20.7161L10.7684 20.7467L10.7571 20.7785C9.97788 22.9562 8.05718 23.9713 6.64435 23.4501L6.63149 23.4453L6.61846 23.4411C5.20146 22.9764 4.28453 20.9522 4.98693 18.7858L4.99194 18.7711L5.01155 18.7135L5.08615 18.4946L5.35367 17.7106C5.57576 17.0604 5.87346 16.1901 6.17599 15.31C6.47862 14.4297 6.78572 13.5405 7.02673 12.852C7.14732 12.5074 7.25075 12.2149 7.32855 11.9994C7.39184 11.8241 7.4284 11.7279 7.44266 11.6904C7.44813 11.676 7.45031 11.6703 7.44946 11.672L7.49499 11.5787L7.51346 11.4765C7.83522 9.69598 9.535 8.25 11.6195 8.25H20.2138C22.2983 8.25 23.9981 9.69598 24.3198 11.4765Z" stroke="#060F42" stroke-width="1.5" stroke-miterlimit="10"/>
<rect x="17" y="12" width="2" height="2" rx="1" fill="#060F42"/>
<rect x="21" y="12" width="2" height="2" rx="1" fill="#060F42"/>
<rect x="19" y="10" width="2" height="2" rx="1" fill="#060F42"/>
<rect x="19" y="14" width="2" height="2" rx="1" fill="#060F42"/>
<line x1="12" y1="11" x2="12" y2="14.5" stroke="#060F42" stroke-width="1.5" stroke-linecap="round"/>
<line x1="13.75" y1="12.75" x2="10.25" y2="12.75" stroke="#060F42" stroke-width="1.5" stroke-linecap="round"/>
</svg>
