<svg width="32" height="32" viewBox="0 0 32 32" fill="none" xmlns="http://www.w3.org/2000/svg">
<path d="M10 13V6H22V13" stroke="#060F42" stroke-width="1.5" stroke-linecap="round" stroke-linejoin="round"/>
<path d="M10 22H8C7.46957 22 6.96086 21.7893 6.58579 21.4142C6.21071 21.0391 6 20.5304 6 20V15C6 14.4696 6.21071 13.9609 6.58579 13.5858C6.96086 13.2107 7.46957 13 8 13H24C24.5304 13 25.0391 13.2107 25.4142 13.5858C25.7893 13.9609 26 14.4696 26 15V20C26 20.5304 25.7893 21.0391 25.4142 21.4142C25.0391 21.7893 24.5304 22 24 22H22" stroke="#060F42" stroke-width="1.5" stroke-linecap="round" stroke-linejoin="round"/>
<path d="M22 19H10V26H22V19Z" stroke="#060F42" stroke-width="1.5" stroke-linecap="round" stroke-linejoin="round"/>
<rect x="9" y="15" width="2" height="2" rx="1" fill="#060F42"/>
<rect x="12" y="15" width="2" height="2" rx="1" fill="#060F42"/>
</svg>
