<svg width="32" height="32" viewBox="0 0 32 32" fill="none" xmlns="http://www.w3.org/2000/svg">
<path d="M11.0002 4.80005H21.0002C22.2002 4.80005 23.3002 5.80005 23.3002 7.10005V23.1C23.3002 24.3001 22.3002 25.4 21.0002 25.4H11.0002C9.8002 25.4 8.7002 24.4 8.7002 23.1V7.00005C8.8002 5.80005 9.8002 4.80005 11.0002 4.80005Z" stroke="#060F42" stroke-width="1.5"/>
<path d="M16.0002 14.8C17.8002 14.8 19.3002 16.3 19.3002 18.1C19.3002 19.9 17.8002 21.4 16.0002 21.4C14.2002 21.4 12.7002 19.9 12.7002 18.1C12.8002 16.2 14.2002 14.8 16.0002 14.8Z" stroke="#060F42" stroke-width="1.5"/>
<path d="M16.0002 7.80005C17.2002 7.80005 18.3002 8.80005 18.3002 10.1C18.3002 11.3 17.3002 12.4 16.0002 12.4C14.8002 12.4 13.7002 11.4 13.7002 10.1C13.8002 8.80005 14.8002 7.80005 16.0002 7.80005Z" stroke="#060F42" stroke-width="1.5"/>
<path d="M21.3998 25.4036H17.7998V26C17.7998 26.7 18.3998 27.3 19.0998 27.3H20.0998C20.7998 27.3 21.3998 26.7 21.3998 26V25.4036ZM21.3998 25.4036C21.1998 25.4036 21.4998 25.4036 21.3998 25.4036Z" stroke="#060F42" stroke-width="1.5"/>
<path d="M14.6 25.4001H11V25.9964C11 26.6964 11.6 27.2964 12.3 27.2964H13.3C14 27.2964 14.6 26.6964 14.6 25.9964V25.4001ZM14.6 25.4001C14.4 25.4001 14.7 25.4001 14.6 25.4001Z" stroke="#060F42" stroke-width="1.5"/>
</svg>
