<svg width="32" height="32" viewBox="0 0 32 32" fill="none" xmlns="http://www.w3.org/2000/svg">
<path d="M25 4.4375C26.2923 5.56055 27 6.97591 27 8.4375C27 9.89909 26.2923 11.3145 25 12.4375" stroke="#060F42" stroke-width="1.5" stroke-linecap="round" stroke-linejoin="round"/>
<path d="M16 12.4375C14.7077 11.3145 14 9.89909 14 8.4375C14 6.97591 14.7077 5.56055 16 4.4375" stroke="#060F42" stroke-width="1.5" stroke-linecap="round" stroke-linejoin="round"/>
<path d="M23 6.4375C23.6505 7.02179 24 7.72077 24 8.4375C24 9.15424 23.6505 9.85321 23 10.4375" stroke="#060F42" stroke-width="1.5" stroke-linecap="round" stroke-linejoin="round"/>
<path d="M18 10.4375C17.3495 9.85321 17 9.15423 17 8.4375C17 7.72076 17.3495 7.02179 18 6.4375" stroke="#060F42" stroke-width="1.5" stroke-linecap="round" stroke-linejoin="round"/>
<rect x="4.75" y="16.1875" width="22.5" height="8.5" rx="3.25" stroke="#060F42" stroke-width="1.5"/>
<line x1="20.5" y1="15.6875" x2="20.5" y2="9.1875" stroke="#060F42" stroke-width="1.5" stroke-linecap="round"/>
<rect x="8" y="19.4375" width="2" height="2" rx="1" fill="#060F42"/>
<rect x="8" y="24.5625" width="2" height="3" rx="1" fill="#060F42"/>
<rect x="22" y="24.5601" width="2" height="3" rx="1" fill="#060F42"/>
<rect x="11" y="19.4375" width="2" height="2" rx="1" fill="#060F42"/>
</svg>
